/* XPM */
static char *_17222fd3ab4441aa3ef3557a4d1099clyfhtaeDJFsqnVXR[] = {
/* columns rows colors chars-per-pixel */
"64 64 19 1 ",
"  c None",
". c #327041",
"X c #6E5A43",
"o c #C74E58",
"O c #4E8A5C",
"+ c #663885",
"@ c #8050A6",
"# c #8760A3",
"$ c #B86EA6",
"% c #E67E87",
"& c #E36DC7",
"* c #BAAFB8",
"= c #D1BEA7",
"- c #EBCEA4",
"; c #EBA4DA",
": c #D1AEEB",
"> c #F5E0C4",
", c #E6DAE4",
"< c #F5D3ED",
/* pixels */
"                                     . .                        ",
"                                   oo..O.                       ",
"                                 oo%%.OOO..                     ",
"                                o%=%...OO.                      ",
"                                o===%%%.OO.                     ",
"                               o%%=%%%%....                     ",
"                        +++    oX%%%%%%.%%.                     ",
"                       +##@++++o%X%%X%%%%%o                     ",
"                      +:##@+###+%%%%%%%X%%o                     ",
"                    $$+#@@+:####+%%%%%%%%o$$                    ",
"                   &<$+@@+:##+##@+X%%X%%%o$$$                   ",
"                  $<$$$+@+#@+++@@+%%%%%oo$$$$$                  ",
"                  $<$$$$++@##+#@@+ooooo$$$$<$$                  ",
"                  $$<$$$$$+##@@@+$$$$$$$$$<$$$                  ",
"                  $$;<<$$$$+@@@+$$$$$$$$<<;$$$                  ",
"                  $$;;;<<<$$+++$$$$$$$<<<;;$$$                  ",
"                  -$$;;;;;<<<<<<<<<<<<;;;;;$$-                  ",
"                  -$$;;;;$;;;;;;;;;$$;;;;;;$$-                  ",
"                  -$$;;;$$$;;;;;;;$$$$;;;;$$$-                  ",
"                  -$$$;$$>$$;;;;;$$>>$$$$$$$>-                  ",
"                  ->$$$$$>$$$;;;$$$>>>>$$$$>>-                  ",
"                  ->>$$$>>>$$$;;$$>>>>>>$$>>>-                  ",
"                  ->>>>>>>>>$$$$$$>>>>>>>>>>>-                  ",
"                  ->>>>>>>>>>$$$$>>>>>>>>>>>>-                  ",
"              $$$$->>>>>>>>>>>>>>>>>>>>>>>>>>-$$$$              ",
"           $$$<$$$->>>>>>>>>>>>>>>>>>>>>>>>>>-$$$$$$$           ",
"          $;<<$$$$$->>>>>>>>>>>>>>>>>>>>>>>>-$$$$$$;;$          ",
"          $;<$$$$$$$->>>>>>>>>>>>>>>>>>>>>>-$$$$$$<;;$          ",
"          $$;<$$$$$$$-->>>>>>>>>>>>>>>>>>--$$$$$$$<;$$          ",
"          $$;;<$$$$$$$$---->>>>>>>>>>----$$$$$$$<<;;$$          ",
"          $$;;;<$$$$$$$$$$$----------$$$$$$$$$<<;;;;$$          ",
"          $$;;;;<<<$$$$$$$$$$$$$$$$$$$$$$$$$$<;;;;;;$$          ",
"          $$;;;;;;;<<<<$$$$$$$$$$$$$$$$$$<<<<;;;;;;;$$          ",
"          $$;;;;;;;$$;;<<<<<<<<<<<<<<<<<<;;;;;;;;;;$$-          ",
"          -$$;;;;;$$$$;;;;;;;;;;;;;;;;;;;;$$;;;;;;;$$-          ",
"          -$$;;;;$$$>$$$;;;;;;;;;;;;;;;;;$$$$;;;;;;$$-          ",
"          -$$;;;;$$>>>$$;;;;;;;;;;;;;;;;$$>$$$;;;;;$$-          ",
"          -$$$$$$$>>>>$$$;;;;;;;$$;;;;;;$>>>$$$;;;;$$-          ",
"          ->$$$$$>>>>>>$$$;;;;;$$$$;;;;$$>>>>$$$;;$$>-          ",
"          ->>$$$>>>>>>>>$$$;;;$$>$$$;;$$$>>>>>$$$$$$>-          ",
"          ->>>>>>>>>>>>>$$$$;$$$>$$$$$$$>>>>>>>$$$$>>-          ",
"          ->>>>>>>>>>>>>$$$$$$$>>>>$$$$$>>>>>>>>>>>>>-          ",
"          ->>>>>>>>>>>>>>$$$$$>>>>>>$$$>>>>>>>>>>>>>>-          ",
"          ->>>>>>>>>>>>>>>>>>>>>>>>>>>>>>>>>>>>>>>>>>-          ",
"         *->>>>>>>>>>>>>>>>>>>>>>>>>>>>>>>>>>>>>>>>>>-*         ",
"        *,->>>>>>>>>>>>>>>>>>>>>>>>>>>>>>>>>>>>>>>>>>-,*        ",
"       *,,->>>>>>>>>>>>>>>>>>>>>>>>>>>>>>>>>>>>>>>>>>-,,*       ",
"      *,,,->>>>>>>>>>>>>>>>>>>>>>>>>>>>>>>>>>>>>>>>>>-,,,*      ",
"      *,,,->>>>>>>>>>>>>>>>>>>>>>>>>>>>>>>>>>>>>>>>>>-,,,*      ",
"      *,,,*->>>>>>>>>>>>>>>>>>>>>>>>>>>>>>>>>>>>>>>>-*,,,*      ",
"      *,,,*--->>>>>>>>>>>>>>>>>>>>>>>>>>>>>>>>>>>>---*,,,*      ",
"      *,,,,***-->>>>>>>>>>>>>>>>>>>>>>>>>>>>>>>>--***,,,,*      ",
"      *,,,,,,,**--->>>>>>>>>>>>>>>>>>>>>>>>>>---**,,,,,,,*      ",
"      *,,,,,,,,,***---->>>>>>>>>>>>>>>>>>----***,,,,,,,,,*      ",
"       *,,,,,,,,,,,****------------------****,,,,,,,,,,,*       ",
"        *,,,,,,,,,,,,,,******************,,,,,,,,,,,,,,*        ",
"         **,,,,,,,,,,,,,,,,,,,,,,,,,,,,,,,,,,,,,,,,,,**         ",
"           **,,,,,,,,,,,,,,,,,,,,,,,,,,,,,,,,,,,,,,**           ",
"             ***,,,,,,,,,,,,,,,,,,,,,,,,,,,,,,,,***             ",
"                ********************************                ",
"                                                                ",
"                                                                ",
"                                                                ",
"                                                                "
};
