/* XPM */
static char *_e1fdd24c73f45b6a7852ea505ca504cH0fxSN5czyrhiWJw[] = {
/* columns rows colors chars-per-pixel */
"17 12 4 1 ",
"  c #3E2731",
". c #B86F50",
"X c #181425",
"o c #733E39",
/* pixels */
"XXXXXXXXXXXXXXXXX",
"X...o... ...o...X",
"X.......o...o...X",
"X...o... ...o...X",
"Xooo ooo ooo oooX",
"Xooo ooo oooooooX",
"Xooooo.. ..o oooX",
"Xooo o.. ..o oooX",
"Xooo o.. ..o oooX",
"Xooo oo   ooooooX",
"Xooo ooo ooo oooX",
"XXXXXXXXXXXXXXXXX"
};
