/* XPM */
static char *_1c796e7356b460ef21e7b9dc6facd92obVFoR0aAgC2n7zS[] = {
/* columns rows colors chars-per-pixel */
"64 64 11 1 ",
"  c None",
". c #8A6C48",
"X c #AD9579",
"o c #95AB76",
"O c #DBD374",
"+ c #A5B888",
"@ c #D9BB98",
"# c #DA99E0",
"$ c #E2ACE8",
"% c #E1B5E6",
"& c #E6C5EB",
/* pixels */
"                                                                ",
"         @@@@@@@@@@@@@@@@@@@@@@@@@@@@@@@@@@@@@@@@@@@@@@         ",
"         @@XXXXXXXXXXXXXXXXXXXXXXXXXXXXXXXXXXXXXXXXXX@@         ",
"         @@..........................................@@         ",
"         @@.XXXXXXXXXXXXXXXX.@@@@@@.XXXXXXXXXXXXXXXX.@@         ",
"         @@.X@@@@@@@@@@@@@@X.@@@@@@.X@@@@@@@@@@@@@@X.@@         ",
"         @@.X@@@@@@@@@@@@@@X.@@@@@@.X@@@@@@@@@@@@@@X.@@         ",
"         @@.X@@@@@@@@@@@@@@X.@@@@@@.X@@@@@@@@@@@@@@X.@@         ",
"         @@.X@@@@@@@@@@@@@@X.@@@@@@.X@@@@@@@@@@@@@@X.@@         ",
"         @@.X@@@@@@@@@@@@@@X.@@@@@@.X@@@@@@@@@@@@@@X.@@         ",
"         @@.X@@@@@@@@@@@@@@X.@@@@@@.X@@@@@@@@@@@@@@X.@@         ",
"         @@.X@@@........@@@X.@@@@@@.X@@@........@@@X.@@         ",
"         @@.X@@.XXXXXXXX.@@X.@@@@@@.X@@.XXXXXXXX.@@X.@@         ",
"         @@.X@@.X@@@@@@X.@@X.@@@@@@.X@@.X@@@@@@X.@@X.@@         ",
"         @@.X@@.X@@@@@@X.@@X.@@@@@@.X@@.X@@@@@@X.@@X.@@         ",
"         @@.X@@.X@@@@@@X.@@X.@@@@@@.X@@.X@@@@@@X.@@X.@@         ",
"         @@.X@@.X@@@@@@X.@@X.@@@@@@.X@@.X@@@@@@X.@@X.@@         ",
"         @@.X@@.X@@@@@@X.@@X.@@@@@@.X@@.X@@@@@@X.@@X.@@         ",
"         @@.X@@.X@@@@@@X.@@X.@@@@@@.X@@.X@@@@@@X.@@X.@@         ",
"         @@.X@@.X@@@@@@X.@@X.@@@@@@.X@@.X@@@@@@X.@@X.@@         ",
"         @@.X@@.X@@@@@@X.@@X.@@@@@@.X@@.X@@@@@@X.@@X.@@         ",
"         @@.X@@.X@@@@@@X.@@X.@@@@@@.X@@.X@@@@@@X.@@X.@@         ",
"         @@.X@@.X@@@@@@X.@@X.@@@@@@.X@@.X@@@@@@X.@@X.@@         ",
"         @@.X@@.X@@@@@@X.@@X.@@@@@@.X@@.X@@@@@@X.@@X.@@         ",
"         @@.X@@.X@@@@@@X.@@X.@@@@@@.X@@.X@@@@@@X.@@X.@@         ",
"         @@.X@@.X@@@@@@X.@@X.@@@@@@.X@@.X@@@@@@X.@@X.@@         ",
"         @@.X@@.X@@@@@@X.@@X.@@@@@@.X@@.X@@@@@@X.@@X.@@         ",
"         @@.X@@.X@@@@@@X.@@X.@@@@@@.X@@.X@@@@@@X.@@X.@@         ",
"         @@.X@@.X@@@@@@X.@@X.@@@@@@.X@@.X@@@@@@X.@@X.@@         ",
"         @@.X@@.X@@@@@@X.@@X.@@@@@@.X@@.X@@@@@@X.@@X.@@         ",
"         @@.X@@.X@@@@@@X.@@X.@@@@@@.X@@.X@@@@@@X.@@X.@@         ",
"         @@.X@@.X@@@@@@X.@@X.@@@@@@.X@@.X@@@@@@X.@@X.@@         ",
"         @@.X@@.X@@@@@@X.@@X.@@@@@@.X@@.X@@@@@@X.@@X.@@         ",
"         @@.X@@.XXXXXXXX.@@X.@@@@@@.X@@.XXXXXXXX.@@X.@@         ",
"         @@.X@@@........@@@X.@@@@@@.X@@@........@@@X.@@         ",
"         @@.X@@@@@@@@@@@@@@X.@@@@@@.X@@@@@@@@@@@@@@X.@@         ",
"         @@.X@@@@@@@@@@@@@@X.@@@@@@.X@@@@@@@@@@@@@@X.@@         ",
"         @@.X@@@@@@@@@@@@@@X.@@@@@@.X@@@@@@@@@@@@@@X.@@         ",
"         @@.X@@@@@@@@@@@@@@X.@@@@@@.X@@@@@@@@@@@@@@X.@@         ",
"         @@.X@@@@@@@@@@@+o@X.@@@@@@.X@o+@@@@@@@@@@@X.@@         ",
"         @@.X@@@@@@@@@@&%o@X.@@@@@@.X@o%&@@@@@@@@@@X.@@         ",
"         @@.X@@@@@@@@@&%$@@X.@@@@@@.X@@$%&@@@@@@@@@X.@@         ",
"         @@.X@@@@@@@@+%$#@@X.@@@@@@.X@@#$%+@@@@@@@@X.@@         ",
"         @@.X@@@@@@@@oo@@@@X.@@@@@@.X@@@@oo@@@@@@@@X.@@         ",
"         @@.X@@@@@@@@@@@@@XX.@@@@@@.XX@@@@@@@@@@@@@X.@@         ",
"         @@.XXXXXXXXXXXXXXX.@@....@@.XXXXXXXXXXXXXXX.@@         ",
"         @@................@@.@@@@.@@................@@         ",
"         @@@@@@@@@@@@@@@@@@@@.@OO@.@@@@@@@@@@@@@@@@@@@@         ",
"         @@@@@@@@@@@@@@@@@@@@.@@@@.@@@@@@@@@@@@@@@@@@@@         ",
"         @@@@@@@@@@@@@@@@@@@@@....@@@@@@@@@@@@@@@@@@@@@         ",
"         @@..................@@@@@@..................@@         ",
"         @@.XXXXXXXXXXXXXXXX.@@@@@@.XXXXXXXXXXXXXXXX.@@         ",
"         @@.X@@@@@@@@@@@@@@X.@@@@@@.X@@@@@@@@@@@@@@X.@@         ",
"         @@.X@@@@@@@@@@@@@@X.@@@@@@.X@@@@@@@@@@@@@@X.@@         ",
"         @@.X@@@@@@@@@@@+o@X.@@@@@@.X@o+@@@@@@@@@@@X.@@         ",
"         @@.X@@@@@@@@@@&%o@X.@@@@@@.X@o%&@@@@@@@@@@X.@@         ",
"         @@.X@@@@@@@@@&%$@@X.@@@@@@.X@@$%&@@@@@@@@@X.@@         ",
"         @@.X@@@@@@@@+%$#@@X.@@@@@@.X@@#$%+@@@@@@@@X.@@         ",
"         @@.X@@@@@@@@oo@@@@X.@@@@@@.X@@@@oo@@@@@@@@X.@@         ",
"         @@.X@@@@@@@@@@@@@@X.@@@@@@.X@@@@@@@@@@@@@@X.@@         ",
"         @@.XXXXXXXXXXXXXXXX.@@@@@@.XXXXXXXXXXXXXXXX.@@         ",
"         @@..................@@@@@@..................@@         ",
"         @@@@@@@@@@@@@@@@@@@@@@@@@@@@@@@@@@@@@@@@@@@@@@         ",
"         @@@@@@@@@@@@@@@@@@@@@@@@@@@@@@@@@@@@@@@@@@@@@@         "
};
