/* XPM */
static char *a78131e57f914cb2e38d38bd4b472d0c8jCv1oRqHA8CCD1p[] = {
/* columns rows colors chars-per-pixel */
"64 64 13 1 ",
"  c None",
". c black",
"X c #523E20",
"o c #665235",
"O c #A3937E",
"+ c #B5A791",
"@ c #E6D6BC",
"# c #E3B1E6",
"$ c #E0BAE3",
"% c #E9B3FF",
"& c #D4D0CB",
"* c #EBD3ED",
"= c white",
/* pixels */
"                                                                ",
"                                                                ",
"                                                                ",
"                            .......                             ",
"                           .ooooooo.                            ",
"                          .oOoooooO.                            ",
"                          .ooO.......                           ",
"                          ....ooooooo...                        ",
"                          .oooooXXXooooo.                       ",
"                         .ooooooooooooooo.                      ",
"                        .oooXXXXXXoooooooO.                     ",
"                       .OooX......XoooooOoo.                    ",
"                      .ooOo.oooooo.oOOOOooo.                    ",
"                      .ooo.oOooooOo.ooooooo.                    ",
"                      .ooo.ooOOOOoo.oooooooo.                   ",
"                      .ooo.oooooooo.ooo..ooo.                   ",
"                      .ooo.oooooooo.o..+.ooo.                   ",
"                      .ooo.oooooooo.o.++.ooo.                   ",
"                      .ooo.oooooooo...++.o..                    ",
"                      .ooo%.oooooo.++.+@+.+.                    ",
"                       .ooo%......%@@@@@@@@.                    ",
"                       .oooo%%%%%%@@@@@.=@@.                    ",
"                      .ooooooooo.+@@@@@..@@.                    ",
"                     .oooooooooo.+@@@@@..@@.                    ",
"                     .ooOoooOooo.+@@@@@@@@@.                    ",
"                    .ooOooooOooo.+@@@@@@@@@.                    ",
"                    .ooOooooOooX.+@@@@@@@@@.                    ",
"                   .ooooOooOooXXX.+@@@@@@@.                     ",
"                    .ooooooooo...#........                      ",
"                     .ooooooo..*.*###.                          ",
"                      .oooo.. .**.***.                          ",
"                       ....   .***.**.                          ",
"                              .***$.*.                          ",
"                              .*.$$#..                          ",
"                              .$*.#@@.                          ",
"                             ..#$$.+@@.                         ",
"                           ..***###.+@@.                        ",
"                          .*********.+@@..                      ",
"                         .***********.+@@@.                     ",
"                        .*************.+@@.                     ",
"                       .**************.++@.                     ",
"                      .$***************....                     ",
"                     .$*#**#**************$.                    ",
"                     .$#**#**#********#***$.                    ",
"                      .$$$**#**********#**$.                    ",
"                       ..$$$************$$.                     ",
"                         ...$$$$$$$$$$$$..                      ",
"                          .+............                        ",
"                          .+++.   .+++.                         ",
"                         .@@@.     .@@@.                        ",
"                         .@@@.     .@@@.                        ",
"                        .@@@.       .@@@.                       ",
"                        .@@@.       .@@@.                       ",
"                       .@@@.         .@@@.                      ",
"                       .@@@.         .@@@.                      ",
"                      .***.           .***..                    ",
"                      ..$$$.&&&&&&&&&&&.$$$$.                   ",
"                     &&....&&&&&&&&&&&&.....&&                  ",
"                    &&&&&&&&&&&&&&&&&&&&&&&&&&&                 ",
"                   &&&&&&&&&&&&&&&&&&&&&&&&&&&&                 ",
"                   &&&&&&&&&&&&&&&&&&&&&&&&&&&&                 ",
"                    &&&&&&&&&&&&&&&&&&&&&&&&&&                  ",
"                      &&&&&&&&&&&&&&&&&&&&&&                    ",
"                                                                "
};
