/* XPM */
static char *_0f0548b696f4c95f7bb282fd46cfd15iScXpec5f3Tp5snG[] = {
/* columns rows colors chars-per-pixel */
"64 64 15 1 ",
"  c None",
". c black",
"X c #523E20",
"o c #665235",
"O c #8A7355",
"+ c #A3937E",
"@ c #B5A791",
"# c #E6D6BC",
"$ c #E3B1E6",
"% c #E0BAE3",
"& c #E9B3FF",
"* c #D4D0CB",
"= c #EBD3ED",
"- c #E9D8F0",
"; c white",
/* pixels */
"                                                                ",
"                                                                ",
"                                                                ",
"                          ...........                           ",
"                        ..oooooXXoooo..                         ",
"                  .... .oooooooXXoooooo. ....                   ",
"                 .oo++.o+ooooooXXooooo+o.++oo.                  ",
"                .oo+oo.oo+ooooooXoooo+oo.oo+oo.                 ",
"                .oo+ooXooo+ooooooooo+oooXoo+oo.                 ",
"                .oo+ooXoooo+++++++++ooooXoo+oo.                 ",
"                .ooo+oXoooooooooooooooooXo+ooo.                 ",
"                .ooooooXooo...oooo...ooXoooooo.                 ",
"                .oooooooXXX.@@....@@.XXooooooo.                 ",
"                 .&oXXo&ooX.@#.@@.@#.Xo&oXXo&.                  ",
"                .oo&&&&oooX.########.Xoo&&&&oo.                 ",
"                .ooooooooXX.########.XXooooooo.                 ",
"                .oooooooX..##########..Xoooooo.                 ",
"                .ooOoooo.##############.oooOoo.                 ",
"                .oOoooo.@###.;####.;###@.oooOo.                 ",
"                .oOoooo.@###..####..###@.oooOo.                 ",
"                .oooooo.@#--########--#@.ooooo.                 ",
"                .ooOoooo.@############@.oooOoo.                 ",
"                ..ooooooo.############.oooooo..                 ",
"                 .oooooooX.@#######@@.Xoooooo.                  ",
"                  .oooooXXX..@@@@@@..XXoooooo.                  ",
"                ...........$$......$$.XXoooo.                   ",
"               .######@@$%==%$$$$$$%%=......                    ",
"              .########@$%===%%%%%%===%.                        ",
"              .##@........%=%======%=%%$.                       ",
"              .@@.        .%========..$@#.                      ",
"               ..         .=========. .@##.                     ",
"                          .=========.  .@##.                    ",
"                          .=========.   .@##..                  ",
"                          .%=======%.    .@###.                 ",
"                        ...$%=%%%=%$...   .###.                 ",
"                       .====$$$$$$$====.  .###.                 ",
"                      .=================.  ...                  ",
"                     .===================.                      ",
"                    .%===================%.                     ",
"                   .%=$=================$=%.                    ",
"                  .%=$%=================%$=%.                   ",
"                  .%$%====$=========$====%$%.                   ",
"                   .%====$%=========%$====%.                    ",
"                    .%%%$%===========%$%%%.                     ",
"                     ...%%%========%%%%...                      ",
"                        ...%%%%%%%%%...                         ",
"                          ...........                           ",
"                          .@@@@.@@@@.                           ",
"                          .####.....                            ",
"                          .####.                                ",
"                          .@##@.                                ",
"                          .@@@@.                                ",
"                          .%%%%.                                ",
"                          .$%%$.**                              ",
"                      *****.$$.*******                          ",
"                    ********..********                          ",
"                    *******************                         ",
"                    *******************                         ",
"                   ********************                         ",
"                    *******************                         ",
"                     *****************                          ",
"                        ***********                             ",
"                         **********                             ",
"                                                                "
};
