/* XPM */
static char *_250b4bc85954c68a41d71ca3b0f793dTcNIXWmumRbI0RLR[] = {
/* columns rows colors chars-per-pixel */
"64 64 13 1 ",
"  c None",
". c black",
"X c #523E20",
"o c #665235",
"O c #A3937E",
"+ c #B5A791",
"@ c #E6D6BC",
"# c #E3B1E6",
"$ c #E0BAE3",
"% c #E9B3FF",
"& c #D4D0CB",
"* c #EBD3ED",
"= c white",
/* pixels */
"                                                                ",
"                                                                ",
"                                                                ",
"                             .......                            ",
"                            .ooooooo.                           ",
"                            .OoooooOo.                          ",
"                           .......Ooo.                          ",
"                        ...ooooooo....                          ",
"                       .oooooXXXooooo.                          ",
"                      .ooooooooooooooo.                         ",
"                     .OoooooooXXXXXXooo.                        ",
"                    .ooOoooooX......XooO.                       ",
"                    .oooOOOOo.oooooo.oOoo.                      ",
"                    .ooooooo.oOooooOo.ooo.                      ",
"                   .oooooooo.ooOOOOoo.ooo.                      ",
"                   .ooo..ooo.oooooooo.ooo.                      ",
"                   .ooo.+..o.oooooooo.ooo.                      ",
"                   .ooo.++.o.oooooooo.ooo.                      ",
"                    ..o.++...oooooooo.ooo.                      ",
"                    .+.+@+.++.oooooo.%ooo.                      ",
"                    .@@@@@@@@%......%ooo.                       ",
"                    .@@=.@@@@@%%%%%%oooo.                       ",
"                    .@@..@@@@@+.ooooooooo.                      ",
"                    .@@..@@@@@+.oooooooooo.                     ",
"                    .@@@@@@@@@+.oooOoooOoo.                     ",
"                    .@@@@@@@@@+.oooOooooOoo.                    ",
"                    .@@@@@@@@@+.XooOooooOoo.                    ",
"                     .@@@@@@@+.XXXooOooOoooo.                   ",
"                      ........#...ooooooooo.                    ",
"                          .###*.*..ooooooo.                     ",
"                          .***.**. ..oooo.                      ",
"                          .**.***.   ....                       ",
"                          .*.$***.                              ",
"                          ..#$$.*.                              ",
"                          .@@#.*$.                              ",
"                         .@@+.$$#..                             ",
"                        .@@+.###***..                           ",
"                      ..@@+.*********.                          ",
"                     .@@@+.***********.                         ",
"                     .@@+.*************.                        ",
"                     .@++.**************.                       ",
"                     ....***************$.                      ",
"                    .$**************#**#*$.                     ",
"                    .$***#********#**#**#$.                     ",
"                    .$**#**********#**$$$.                      ",
"                     .$$************$$$..                       ",
"                      ..$$$$$$$$$$$$...                         ",
"                        ............+.                          ",
"                         .+++.   .+++.                          ",
"                        .@@@.     .@@@.                         ",
"                        .@@@.     .@@@.                         ",
"                       .@@@.       .@@@.                        ",
"                       .@@@.       .@@@.                        ",
"                      .@@@.         .@@@.                       ",
"                      .@@@.         .@@@.                       ",
"                    ..***.           .***.                      ",
"                   .$$$$.&&&&&&&&&&&.$$$..                      ",
"                  &&.....&&&&&&&&&&&&....&&                     ",
"                 &&&&&&&&&&&&&&&&&&&&&&&&&&&                    ",
"                 &&&&&&&&&&&&&&&&&&&&&&&&&&&&                   ",
"                 &&&&&&&&&&&&&&&&&&&&&&&&&&&&                   ",
"                  &&&&&&&&&&&&&&&&&&&&&&&&&&                    ",
"                    &&&&&&&&&&&&&&&&&&&&&&                      ",
"                                                                "
};
