/* XPM */
static char *_be474e6527341aa94bf79bebeec9e4fIIoXghjqTjGcBjnt[] = {
/* columns rows colors chars-per-pixel */
"64 64 13 1 ",
"  c None",
". c black",
"X c #523E20",
"o c #665235",
"O c #8A7355",
"+ c #A3937E",
"@ c #B5A791",
"# c #E6D6BC",
"$ c #E3B1E6",
"% c #E0BAE3",
"& c #E9B3FF",
"* c #D4D0CB",
"= c #EBD3ED",
/* pixels */
"                                                                ",
"                                                                ",
"                                                                ",
"                          ...........                           ",
"                        ..oooooXXoooo..                         ",
"                  .... .oooooooXXoooooo. ....                   ",
"                 .oo++.o+ooooooXXooooo+o.++oo.                  ",
"                .oo+oo.oo+ooooooXoooo+oo.oo+oo.                 ",
"                .oo+ooXooo+ooooooooo+oooXoo+oo.                 ",
"                .oo+ooXoooo+++++++++ooooXoo+oo.                 ",
"                .ooo+oXoooooooooooooooooXo+ooo.                 ",
"                .ooooooXoooooooooooooooXoooooo.                 ",
"                .oooooooXXXoooooooooXXXooooooo.                 ",
"                 .&oXXo&ooooooooooooooo&oXXo&.                  ",
"                .oX&&&&XoooooooooooooooX&&&&Xo.                 ",
"                .ooXXXXoooooooooooooooooXXXXoo.                 ",
"                .oooooooooooOooooooOoooooooooo.                 ",
"                .ooOoooooooOooooooooOooooooOoo.                 ",
"                .oOoooooooooooooooooooooooooOo.                 ",
"                .oOooooooooOooooooooOoooooooOo.                 ",
"                .ooooooooooooooooooooooooooooo.                 ",
"                .ooOoooooooooOooooOooooooooOoo.                 ",
"                ..ooooooooooooooooooooooooooo..                 ",
"                 .oooooooooOooooooooOoooooooo.                  ",
"                  .ooooooooOooooooooOoooooooo.                  ",
"                .......oooooOooooooOooooooo..                   ",
"               .######@....................                     ",
"              .########@$%===%%%%%%===%.                        ",
"              .##@........%=%======%=%%$.                       ",
"              .@@.        .%========..$@#.                      ",
"               ..         .=========. .@##.                     ",
"                          .=========.  .@##.                    ",
"                          .=========.   .@##..                  ",
"                          .%=======%.    .@###.                 ",
"                        ...$%=%%%=%$...   .###.                 ",
"                       .====$$$$$$$====.  .###.                 ",
"                      .=================.  ...                  ",
"                     .===================.                      ",
"                    .%===================%.                     ",
"                   .%=$=================$=%.                    ",
"                  .%=$%=================%$=%.                   ",
"                  .%$%====$=========$====%$%.                   ",
"                   .%====$%=========%$====%.                    ",
"                    .%%%$%===========%$%%%.                     ",
"                     ...%%%========%%%%...                      ",
"                        ...%%%%%%%%%...                         ",
"                          ...........                           ",
"                          .@@@@.@@@@.                           ",
"                          .####.....                            ",
"                          .####.                                ",
"                          .@##@.                                ",
"                          .@@@@.                                ",
"                          .%%%%.                                ",
"                          .$%%$.**                              ",
"                      *****.$$.*******                          ",
"                    ********..********                          ",
"                    *******************                         ",
"                    *******************                         ",
"                   ********************                         ",
"                    *******************                         ",
"                     *****************                          ",
"                        ***********                             ",
"                         **********                             ",
"                                                                "
};
