/* XPM */
static char *a5f1177ac7cf4a6bf48147fee621560ekwyWCHnVwtmBgXgB[] = {
/* columns rows colors chars-per-pixel */
"46 51 25 1 ",
"  c None",
". c #211A1C",
"X c #2B2023",
"o c #2D312B",
"O c #3B2C33",
"+ c #462727",
"@ c #552D21",
"# c #552D24",
"$ c #51322E",
"% c #3F433D",
"& c #4D3945",
"* c #795048",
"= c #684F5A",
"- c #5E615A",
"; c #6F736A",
": c #936141",
"> c #A26E49",
", c #A46F59",
"< c #876C7D",
"1 c #BE865F",
"2 c #868B7C",
"3 c #C29459",
"4 c #E1B26E",
"5 c #F6CA74",
"6 c #A0A387",
/* pixels */
"                                              ",
"                                              ",
"                                              ",
"                                              ",
"                                              ",
"                                              ",
"                                              ",
"                                              ",
"                                              ",
"                                              ",
"                                              ",
"                                              ",
"                                              ",
"                        ...                   ",
"                    . ..=<.                   ",
"                   .=.&==.                    ",
"                  .&=&==<<.....               ",
"                . .&&=====<<<.                ",
"                ..&&==&&&&&=.                 ",
"                .O&=&&&&===.                  ",
"                .O&&&&OO&&=.                  ",
"                .O&&&OO&&&&=..                ",
"                .OO&OO&&OOO&&&.               ",
"                .OOOOO&OOOOOO.                ",
"                 .OOOOOOO&&O.                 ",
"                 .OOOOOOOOO.                  ",
"                  .OOOOOOO.                   ",
"                   .OOOOO.                    ",
"                   #XXXXX#                    ",
"                  #111111%#                   ",
"                  #,1454-%4#                  ",
"                 #,*455-;%1#                  ",
"                 #,$---22+1*#                 ",
"                 #*%$$$$$%##>@                ",
"                  %;-262;o @:3@               ",
"                  o-%;2;%*# @@3@              ",
"                   o1o;o**#   @@@             ",
"                   #14o ##       @            ",
"                    ##                        ",
"                                              ",
"                                              ",
"                                              ",
"                                              ",
"                                              ",
"                                              ",
"                                              ",
"                                              ",
"                                              ",
"                                              ",
"                                              ",
"                                              "
};
