/* XPM */
static char *_7a8e6b0c52f4eac8d0f33542be3b4e2ZswpAEMmY1gQGBqz[] = {
/* columns rows colors chars-per-pixel */
"46 50 27 1 ",
"  c None",
". c #110B00",
"X c #211A1C",
"o c #2B2023",
"O c #2D312B",
"+ c #3B2C33",
"@ c #462727",
"# c #552D21",
"$ c #552D24",
"% c #3F433D",
"& c #4D3945",
"* c #795048",
"= c #684F5A",
"- c #5E615A",
"; c #6F736A",
": c #936141",
"> c #A26E49",
", c #A46F59",
"< c #876C7D",
"1 c #BE865F",
"2 c #868B7C",
"3 c #C29459",
"4 c #E1B26E",
"5 c #F6CA74",
"6 c #374A8F",
"7 c #3F6AD4",
"8 c #D2DDE8",
/* pixels */
"                                              ",
"                                              ",
"                                              ",
"                                              ",
"                                              ",
"                                              ",
"                                              ",
"                                              ",
"                                              ",
"                                              ",
"                                              ",
"                                              ",
"                                              ",
"                        XX                    ",
"                       X<X  XXX               ",
"                    XXX==X X<<X               ",
"                   X&&====X<=X                ",
"                  X&========&XX               ",
"                 X&======&&o=<<X              ",
"                X&&===<&=<<=o=XXX             ",
"                X+&&==<&&+&&&X                ",
"                X+&&==&+ooooX                 ",
"                X++&&&+o4441$                 ",
"                X++++*o11111$                 ",
"                X+++*4,1,..1$                 ",
"                 X++*441.764$                 ",
"                  XX+*114874$                 ",
"                    $*144445$                 ",
"                    $,*1444$                  ",
"                    O--***$                   ",
"                    $,*-,$                    ",
"                    $14$$4$                   ",
"                    $*145$$                   ",
"                     @*4##>#                  ",
"                     O$$2#:3#                 ",
"                     O--;2##3#                ",
"                     O-%;O  ###               ",
"                      O1%$     #              ",
"                      $,14$                   ",
"                      $$$$                    ",
"                                              ",
"                                              ",
"                                              ",
"                                              ",
"                                              ",
"                                              ",
"                                              ",
"                                              ",
"                                              ",
"                                              "
};
