/* XPM */
static char *_ab4f907d66f4a0391c917c9e2871457oK0AOY6PNt2NhTn4[] = {
/* columns rows colors chars-per-pixel */
"32 42 27 1 ",
"  c None",
". c #110B00",
"X c #211A1C",
"o c #2B2023",
"O c #2D312B",
"+ c #3B2C33",
"@ c #462727",
"# c #552D21",
"$ c #552D24",
"% c #51322E",
"& c #3F433D",
"* c #4D3945",
"= c #795048",
"- c #684F5A",
"; c #5E615A",
": c #6F736A",
"> c #A46F59",
", c #876C7D",
"< c #BE865F",
"1 c #868B7C",
"2 c #C29459",
"3 c #E1B26E",
"4 c #F6CA74",
"5 c #374A8F",
"6 c #3F6AD4",
"7 c #A0A387",
"8 c #D2DDE8",
/* pixels */
"                                ",
"                                ",
"                                ",
"                                ",
"                                ",
"                                ",
"            XXXX                ",
"             X,-XX              ",
"         XXXX----*X             ",
"       XX,,,------*X            ",
"         Xo-**-----*X           ",
"        X,-**,-*,--**X          ",
"       X,-*o,***,-**+X          ",
"      XXXoo-*+o+*-**+X          ",
"         $o*oo3o+**++X          ",
"         $oo>><o+=+++X          ",
"         $<>..><o3=++X          ",
"         $3<56.<33=+X           ",
"         $4368<<<=$X            ",
"         $33333<=$              ",
"          $333<=>$              ",
"           $===><$              ",
"            $><<3<$             ",
"            $3<=43$             ",
"            O43$3<$             ",
"           #O:$43$              ",
"          #2O1$3<@              ",
"         #2#@%%$$@              ",
"        ### O711:O              ",
"       #    $&1&;&$             ",
"            $3&$&=$             ",
"           $3<>$$$              ",
"            $$$                 ",
"                                ",
"                                ",
"                                ",
"                                ",
"                                ",
"                                ",
"                                ",
"                                ",
"                                "
};
