/* XPM */
static char *d12b5be6fab441e8b64f739ae4b18a70yPxDiVHoeZGUd6JK[] = {
/* columns rows colors chars-per-pixel */
"63 51 29 1 ",
"  c None",
". c #110B00",
"X c #211A1C",
"o c #2B2023",
"O c #2D312B",
"+ c #3B2C33",
"@ c #462727",
"# c #552D21",
"$ c #552D24",
"% c #51322E",
"& c #3F433D",
"* c #4D3945",
"= c #795048",
"- c #684F5A",
"; c #5E615A",
": c #6F736A",
"> c #936141",
", c #A26E49",
"< c #A46F59",
"1 c #876C7D",
"2 c #BE865F",
"3 c #868B7C",
"4 c #C29459",
"5 c #E1B26E",
"6 c #F6CA74",
"7 c #374A8F",
"8 c #3F6AD4",
"9 c #A0A387",
"0 c #D2DDE8",
/* pixels */
"                                                               ",
"                                                               ",
"                                                               ",
"                                                               ",
"                                                               ",
"                                                               ",
"                                                               ",
"                                                               ",
"                                                               ",
"                                                               ",
"                                                               ",
"                                                               ",
"                                                               ",
"                                                               ",
"                                                               ",
"                                                               ",
"                                                               ",
"                                                               ",
"                           XXXXX X                             ",
"                            X--*X-X                            ",
"                          XX11--*-*X                           ",
"                         X11-*---**X X                         ",
"                        X1-**1-*-*-*XX                         ",
"                       XXX*o1-*-*+*++X                         ",
"                          X1*+o*+o+*+X                         ",
"                         X-*ooo+o5oo+X                         ",
"                         X*o225o522<o$                         ",
"                         Xo<..252..<$$                         ",
"                         X$.87.5.78.$                          ",
"                          $<0856580<$                          ",
"                           $2556552$                           ",
"                           $$25552$$                           ",
"                          $=&=====<=$                          ",
"                          $<&:;522$$$                          ",
"                         $=<@33;;$65$                          ",
"                        #,$$&%%%%$55$                          ",
"                       #4># O:393:$$                           ",
"                      #4##  $&:3:&:O                           ",
"                     ###   $55&:&&O                            ",
"                    #      $222O$$                             ",
"                            $$$                                ",
"                                                               ",
"                                                               ",
"                                                               ",
"                                                               ",
"                                                               ",
"                                                               ",
"                                                               ",
"                                                               ",
"                                                               ",
"                                                               "
};
