/* XPM */
static char *fe628f0df3344bd0b06eedd89d145a36b5Tfb0sr8NnreCUk[] = {
/* columns rows colors chars-per-pixel */
"16 16 5 1 ",
"  c #3A4466",
". c #5A6988",
"X c #181425",
"o c #8B9BB4",
"O c #C0CBDC",
/* pixels */
"XOOOOOOOOOOOOOOX",
"XOOOOOOOOOOOOOOX",
"XOOOOOOOOOOOOO.X",
"XOOOOOOOOOOOO.oX",
"XOOOOOOOOOOOoOOX",
"XOOOOOOOOOOoOOOX",
"XOOOOOOOOOoOOOOX",
"XOOOOOOOO.OOOOOX",
"Xooooooo.oOOOOoX",
"Xooooooo.ooooooX",
"Xooooooo ooooooX",
"X.ooo. . .ooo..X",
"Xooooo ooooooooX",
"Xooooo.ooooooooX",
"Xooooo.ooooooooX",
"XXXXXXXXXXXXXXXX"
};
